# xmcd
# 
# Track frame offsets:
#     150
#     13157
#     29037
#     42757
#     64082
#     80387
#     94247
#     112537
#     125812
#     147907
#     163525
#     177562
#     193217
#     203947
# 
# Disc length: 2885
# 
# Revision: 1
# Processed by: cddbd v1.5.2PL0 Copyright (c) Steve Scherf et al.
# Submitted via: fre:ac v1.0.17
# 
DISCID=c70b430e
DTITLE=Aretha Franklin - Jazz Moods - Aretha Franklin
DYEAR=2005
DGENRE=Blues
TTITLE0=Just for a thrill
TTITLE1=What a difference a day makes
TTITLE2=God bless the child
TTITLE3=When the world was young
TTITLE4=Misty
TTITLE5=All night long
TTITLE6=Skylark
TTITLE7=But beautiful
TTITLE8=Only the lonely
TTITLE9=Drinking again
TTITLE10=It will have to do until the real thing comes along
TTITLE11=For all we know
TTITLE12=Nobody like you
TTITLE13=Without the one you love
EXTD=
EXTT0=
EXTT1=
EXTT2=
EXTT3=
EXTT4=
EXTT5=
EXTT6=
EXTT7=
EXTT8=
EXTT9=
EXTT10=
EXTT11=
EXTT12=
EXTT13=
PLAYORDER=
